<svg viewBox="0 0 120 120" fill="none" xmlns="http://www.w3.org/2000/svg">
  <defs>
    <linearGradient id="brandTeal" x1="0" y1="0" x2="1" y2="1">
      <stop offset="0" stop-color="#38D7D3"/>
      <stop offset="1" stop-color="#069A97"/>
    </linearGradient>
    <linearGradient id="brandOrange" x1="0" y1="0" x2="0" y2="1">
      <stop offset="0" stop-color="#FFAE51"/>
      <stop offset="1" stop-color="#F89437"/>
    </linearGradient>
  </defs>
  <path d="M22 92V45c0-12 10-22 22-22h3c6 0 11 5 11 11V96H44c-12 0-22-10-22-22Z" fill="url(#brandTeal)"/>
  <path d="M98 91V45c0-12-10-22-22-22h-3c-6 0-11 5-11 11v62h14c12 0 22-10 22-22Z" fill="url(#brandOrange)"/>
  <path d="M33 34c11 0 20 6 25 16l13 25c4 8 8 13 15 18-8 4-18 3-24-3-4-4-7-8-10-14L39 50c-2-4-6-6-11-6h5Z" fill="url(#brandTeal)"/>
  <path d="M59 77c-4-8-8-13-15-18 8-4 18-3 24 3 4 4 7 8 10 14l13 26c2 4 6 6 11 6h-5c-11 0-20-6-25-16L59 77Z" fill="url(#brandOrange)" transform="translate(-8 -26)"/>
  <path d="M88 16 116 10l-6 28-6-7-11 10-6-6 11-10-10-9Z" fill="#77C738"/>
</svg>
